<?xml version="1.0" encoding="UTF-8" standalone="no"?>
<!-- Created with Inkscape (http://www.inkscape.org/) -->

<svg
   version="1.1"
   id="svg2"
   width="879.77777"
   height="133.06485"
   viewBox="0 0 879.77775 133.06485"
   sodipodi:docname="コルバトロゴ_アウトライン (2).ai"
   xmlns:inkscape="http://www.inkscape.org/namespaces/inkscape"
   xmlns:sodipodi="http://sodipodi.sourceforge.net/DTD/sodipodi-0.dtd"
   xmlns="http://www.w3.org/2000/svg"
   xmlns:svg="http://www.w3.org/2000/svg">
  <defs
     id="defs6">
    <clipPath
       clipPathUnits="userSpaceOnUse"
       id="clipPath20">
      <path
         d="M 0,180 H 899 V 0 H 0 Z"
         id="path18" />
    </clipPath>
  </defs>
  <sodipodi:namedview
     id="namedview4"
     pagecolor="#ffffff"
     bordercolor="#000000"
     borderopacity="0.25"
     inkscape:showpageshadow="2"
     inkscape:pageopacity="0.0"
     inkscape:pagecheckerboard="0"
     inkscape:deskcolor="#d1d1d1"
     showgrid="false"
     inkscape:zoom="1.3615147"
     inkscape:cx="587.21364"
     inkscape:cy="47.00647"
     inkscape:window-width="2560"
     inkscape:window-height="1440"
     inkscape:window-x="0"
     inkscape:window-y="0"
     inkscape:window-maximized="0"
     inkscape:current-layer="g10" />
  <g
     id="g10"
     inkscape:groupmode="layer"
     inkscape:label="Page 1"
     transform="matrix(1.3333333,0,0,-1.3333333,-166.3158,193.97473)">
    <g
       id="g14">
      <g
         id="g16"
         clip-path="url(#clipPath20)">
        <g
           id="g22"
           transform="translate(445.3588,101.0435)">
          <path
             d="M 0,0 C 2.955,0.187 5.91,0.295 8.865,0.427 L 8.313,0.017 c 2.007,7.936 4.494,16.658 6.75,24.572 1.009,3.431 3.158,10.783 4.156,14.179 2.342,-16.476 3.535,-33.148 5.165,-49.694 0.383,-3.596 1.244,-10.859 1.713,-14.447 0,0 -0.968,0.036 -0.968,0.036 2.706,14.804 5.124,30.394 7.956,45.161 0,0 1.209,6.44 1.209,6.44 l 1.56,-6.392 c 1.426,-5.814 5.057,-20.664 6.341,-26.305 0,0 1.985,-8.799 1.985,-8.799 l -2.985,0.035 c 1.875,7.017 4.032,14.793 6.023,21.823 0.908,3.235 1.92,6.612 2.844,9.853 0,0 1.037,-2.44 1.037,-2.44 1.59,-3.839 3.957,-9.199 5.469,-13.008 0,0 -0.423,0.271 -0.423,0.271 2.298,-0.092 4.596,-0.19 6.895,-0.317 v -0.3 C 60.741,0.558 58.443,0.46 56.145,0.368 L 55.865,0.357 55.721,0.64 c -1.849,3.628 -4.529,8.889 -6.351,12.601 0,0 1.787,0.161 1.787,0.161 -2.634,-11.68 -5.551,-23.781 -8.508,-35.384 -3.04,12.283 -6.827,28.745 -9.553,41.21 -10e-4,0 2.769,0.048 2.769,0.048 -3.187,-15.762 -7.147,-32.046 -10.396,-47.804 0,0 -0.346,3.038 -0.346,3.038 -1.965,19.254 -5.681,38.458 -7.719,57.688 0,0 2.575,-0.226 2.575,-0.226 C 18.734,27.919 16.148,19.814 14.844,15.783 13.027,10.261 11.212,4.737 9.266,-0.745 6.177,-0.605 3.088,-0.495 0,-0.3 Z"
             style="fill:#231916;fill-opacity:1;fill-rule:nonzero;stroke:none"
             id="path24" />
        </g>
        <path
           d="m 750.936,49.411 h -599.45 v 7.905 h 599.45 z"
           style="fill:#ce7453;fill-opacity:1;fill-rule:nonzero;stroke:none"
           id="path26" />
        <g
           id="g28"
           transform="translate(171.1643,88.4216)">
          <path
             d="m 0,0 -11.947,15.536 h -2.939 V 0 h -4.793 v 34.059 h 4.793 V 19.823 h 2.891 L -0.386,34.059 H 5.492 L -7.853,17.824 6.142,0 Z"
             style="fill:#231916;fill-opacity:1;fill-rule:nonzero;stroke:none"
             id="path30" />
        </g>
        <g
           id="g32"
           transform="translate(171.1643,88.4216)">
          <path
             d="m 0,0 -11.947,15.536 h -2.939 V 0 h -4.793 v 34.059 h 4.793 V 19.823 h 2.891 L -0.386,34.059 H 5.492 L -7.853,17.824 6.142,0 Z"
             style="fill:none;stroke:#231916;stroke-width:0.75;stroke-linecap:butt;stroke-linejoin:miter;stroke-miterlimit:10;stroke-dasharray:none;stroke-opacity:1"
             id="path34" />
        </g>
        <g
           id="g36"
           transform="translate(205.2639,92.4685)">
          <path
             d="m 0,0 c 1.702,0 3.296,0.292 4.781,0.879 1.485,0.586 2.778,1.421 3.878,2.505 1.1,1.084 1.967,2.453 2.601,4.106 0.635,1.655 0.952,3.493 0.952,5.516 0,2.008 -0.317,3.834 -0.952,5.48 -0.634,1.646 -1.501,3.006 -2.601,4.082 -1.1,1.077 -2.393,1.908 -3.878,2.494 C 3.296,25.647 1.702,25.94 0,25.94 c -1.718,0 -3.32,-0.293 -4.805,-0.878 -1.486,-0.586 -2.782,-1.417 -3.89,-2.494 -1.108,-1.076 -1.979,-2.436 -2.614,-4.082 -0.634,-1.646 -0.951,-3.472 -0.951,-5.48 0,-2.023 0.317,-3.861 0.951,-5.516 0.635,-1.653 1.506,-3.022 2.614,-4.106 C -7.587,2.3 -6.291,1.465 -4.805,0.879 -3.32,0.292 -1.718,0 0,0 m 0,-4.505 c -3.228,0 -6.122,0.694 -8.683,2.084 -2.562,1.389 -4.593,3.424 -6.094,6.106 -1.502,2.681 -2.252,5.789 -2.252,9.321 0,2.65 0.433,5.078 1.3,7.287 0.868,2.207 2.064,4.05 3.589,5.527 1.526,1.478 3.328,2.621 5.408,3.433 2.079,0.81 4.323,1.216 6.732,1.216 2.393,0 4.628,-0.406 6.708,-1.216 2.08,-0.812 3.878,-1.955 5.396,-3.433 1.517,-1.477 2.713,-3.32 3.588,-5.527 0.875,-2.209 1.313,-4.637 1.313,-7.287 0,-2.665 -0.438,-5.103 -1.313,-7.31 C 14.817,3.488 13.621,1.646 12.104,0.168 10.586,-1.31 8.788,-2.457 6.708,-3.276 4.628,-4.095 2.393,-4.505 0,-4.505"
             style="fill:#231916;fill-opacity:1;fill-rule:nonzero;stroke:none"
             id="path38" />
        </g>
        <g
           id="g40"
           transform="translate(205.2639,92.4685)">
          <path
             d="m 0,0 c 1.702,0 3.296,0.292 4.781,0.879 1.485,0.586 2.778,1.421 3.878,2.505 1.1,1.084 1.967,2.453 2.601,4.106 0.635,1.655 0.952,3.493 0.952,5.516 0,2.008 -0.317,3.834 -0.952,5.48 -0.634,1.646 -1.501,3.006 -2.601,4.082 -1.1,1.077 -2.393,1.908 -3.878,2.494 C 3.296,25.647 1.702,25.94 0,25.94 c -1.718,0 -3.32,-0.293 -4.805,-0.878 -1.486,-0.586 -2.782,-1.417 -3.89,-2.494 -1.108,-1.076 -1.979,-2.436 -2.614,-4.082 -0.634,-1.646 -0.951,-3.472 -0.951,-5.48 0,-2.023 0.317,-3.861 0.951,-5.516 0.635,-1.653 1.506,-3.022 2.614,-4.106 C -7.587,2.3 -6.291,1.465 -4.805,0.879 -3.32,0.292 -1.718,0 0,0 Z m 0,-4.505 c -3.228,0 -6.122,0.694 -8.683,2.084 -2.562,1.389 -4.593,3.424 -6.094,6.106 -1.502,2.681 -2.252,5.789 -2.252,9.321 0,2.65 0.433,5.078 1.3,7.287 0.868,2.207 2.064,4.05 3.589,5.527 1.526,1.478 3.328,2.621 5.408,3.433 2.079,0.81 4.323,1.216 6.732,1.216 2.393,0 4.628,-0.406 6.708,-1.216 2.08,-0.812 3.878,-1.955 5.396,-3.433 1.517,-1.477 2.713,-3.32 3.588,-5.527 0.875,-2.209 1.313,-4.637 1.313,-7.287 0,-2.665 -0.438,-5.103 -1.313,-7.31 C 14.817,3.488 13.621,1.646 12.104,0.168 10.586,-1.31 8.788,-2.457 6.708,-3.276 4.628,-4.095 2.393,-4.505 0,-4.505 Z"
             style="fill:none;stroke:#231916;stroke-width:0.75;stroke-linecap:butt;stroke-linejoin:miter;stroke-miterlimit:10;stroke-dasharray:none;stroke-opacity:1"
             id="path42" />
        </g>
        <g
           id="g44"
           transform="translate(241.9646,118.3367)">
          <path
             d="m 0,0 v -10.935 h 6.021 c 2.136,0 3.742,0.486 4.818,1.457 1.076,0.972 1.614,2.3 1.614,3.987 0,1.67 -0.538,3.002 -1.614,3.998 C 9.763,-0.498 8.157,0 6.021,0 Z M 13.585,-29.915 4.769,-14.596 H 0 V -29.915 H -4.793 V 4.144 H 6.672 c 1.734,0 3.276,-0.253 4.625,-0.759 1.349,-0.506 2.436,-1.205 3.264,-2.096 0.826,-0.892 1.448,-1.915 1.866,-3.071 0.417,-1.156 0.626,-2.417 0.626,-3.781 0,-2.377 -0.658,-4.344 -1.975,-5.902 -1.317,-1.557 -3.147,-2.537 -5.492,-2.938 l 9.611,-15.512 z"
             style="fill:#231916;fill-opacity:1;fill-rule:nonzero;stroke:none"
             id="path46" />
        </g>
        <g
           id="g48"
           transform="translate(241.9646,118.3367)">
          <path
             d="m 0,0 v -10.935 h 6.021 c 2.136,0 3.742,0.486 4.818,1.457 1.076,0.972 1.614,2.3 1.614,3.987 0,1.67 -0.538,3.002 -1.614,3.998 C 9.763,-0.498 8.157,0 6.021,0 Z M 13.585,-29.915 4.769,-14.596 H 0 V -29.915 H -4.793 V 4.144 H 6.672 c 1.734,0 3.276,-0.253 4.625,-0.759 1.349,-0.506 2.436,-1.205 3.264,-2.096 0.826,-0.892 1.448,-1.915 1.866,-3.071 0.417,-1.156 0.626,-2.417 0.626,-3.781 0,-2.377 -0.658,-4.344 -1.975,-5.902 -1.317,-1.557 -3.147,-2.537 -5.492,-2.938 l 9.611,-15.512 z"
             style="fill:none;stroke:#231916;stroke-width:0.75;stroke-linecap:butt;stroke-linejoin:miter;stroke-miterlimit:10;stroke-dasharray:none;stroke-opacity:1"
             id="path50" />
        </g>
        <g
           id="g52"
           transform="translate(287.6263,92.6365)">
          <path
             d="m 0,0 c 1.862,0 3.324,0.538 4.383,1.614 1.06,1.075 1.59,2.393 1.59,3.95 0,1.638 -0.55,2.987 -1.65,4.046 -1.1,1.061 -2.637,1.59 -4.612,1.59 H -7.925 V 0 Z m 3.661,20.474 c 0,1.509 -0.518,2.757 -1.554,3.745 C 1.072,25.207 -0.346,25.7 -2.144,25.7 H -7.925 V 15.103 h 6.528 c 1.509,0 2.73,0.513 3.661,1.541 0.931,1.028 1.397,2.304 1.397,3.83 M 3.926,13.609 C 6.013,13.079 7.655,12.1 8.852,10.671 10.047,9.241 10.646,7.379 10.646,5.083 10.646,2.305 9.763,0.061 7.997,-1.649 6.23,-3.359 3.837,-4.215 0.819,-4.215 H -12.573 V 29.844 H -2.12 c 3.115,0 5.604,-0.831 7.467,-2.493 1.862,-1.663 2.794,-3.851 2.794,-6.564 0,-1.638 -0.361,-3.083 -1.084,-4.336 -0.723,-1.252 -1.766,-2.2 -3.131,-2.842"
             style="fill:#231916;fill-opacity:1;fill-rule:nonzero;stroke:none"
             id="path54" />
        </g>
        <g
           id="g56"
           transform="translate(287.6263,92.6365)">
          <path
             d="m 0,0 c 1.862,0 3.324,0.538 4.383,1.614 1.06,1.075 1.59,2.393 1.59,3.95 0,1.638 -0.55,2.987 -1.65,4.046 -1.1,1.061 -2.637,1.59 -4.612,1.59 H -7.925 V 0 Z m 3.661,20.474 c 0,1.509 -0.518,2.757 -1.554,3.745 C 1.072,25.207 -0.346,25.7 -2.144,25.7 H -7.925 V 15.103 h 6.528 c 1.509,0 2.73,0.513 3.661,1.541 0.931,1.028 1.397,2.304 1.397,3.83 z M 3.926,13.609 C 6.013,13.079 7.655,12.1 8.852,10.671 10.047,9.241 10.646,7.379 10.646,5.083 10.646,2.305 9.763,0.061 7.997,-1.649 6.23,-3.359 3.837,-4.215 0.819,-4.215 H -12.573 V 29.844 H -2.12 c 3.115,0 5.604,-0.831 7.467,-2.493 1.862,-1.663 2.794,-3.851 2.794,-6.564 0,-1.638 -0.361,-3.083 -1.084,-4.336 -0.723,-1.252 -1.766,-2.2 -3.131,-2.842 z"
             style="fill:none;stroke:#231916;stroke-width:0.75;stroke-linecap:butt;stroke-linejoin:miter;stroke-miterlimit:10;stroke-dasharray:none;stroke-opacity:1"
             id="path58" />
        </g>
        <g
           id="g60"
           transform="translate(318.3777,100.5613)">
          <path
             d="M 0,0 H 12.236 L 6.118,17.174 Z m 16.572,-12.14 -2.843,7.949 H -1.493 L -4.335,-12.14 H -9.321 L 3.228,21.919 H 9.009 L 21.558,-12.14 Z"
             style="fill:#231916;fill-opacity:1;fill-rule:nonzero;stroke:none"
             id="path62" />
        </g>
        <g
           id="g64"
           transform="translate(318.3777,100.5613)">
          <path
             d="M 0,0 H 12.236 L 6.118,17.174 Z m 16.572,-12.14 -2.843,7.949 H -1.493 L -4.335,-12.14 H -9.321 L 3.228,21.919 H 9.009 L 21.558,-12.14 Z"
             style="fill:none;stroke:#231916;stroke-width:0.75;stroke-linecap:butt;stroke-linejoin:miter;stroke-miterlimit:10;stroke-dasharray:none;stroke-opacity:1"
             id="path66" />
        </g>
        <g
           id="g68"
           transform="translate(371.4817,122.4802)">
          <path
             d="m 0,0 v -4.312 h -8.623 v -29.747 h -4.745 v 29.747 h -8.647 V 0 Z"
             style="fill:#231916;fill-opacity:1;fill-rule:nonzero;stroke:none"
             id="path70" />
        </g>
        <g
           id="g72"
           transform="translate(371.4817,122.4802)">
          <path
             d="m 0,0 v -4.312 h -8.623 v -29.747 h -4.745 v 29.747 h -8.647 V 0 Z"
             style="fill:none;stroke:#231916;stroke-width:0.75;stroke-linecap:butt;stroke-linejoin:miter;stroke-miterlimit:10;stroke-dasharray:none;stroke-opacity:1"
             id="path74" />
        </g>
        <g
           id="g76"
           transform="translate(399.5354,92.4685)">
          <path
             d="m 0,0 c 1.702,0 3.296,0.292 4.781,0.879 1.485,0.586 2.778,1.421 3.878,2.505 1.1,1.084 1.967,2.453 2.601,4.106 0.635,1.655 0.952,3.493 0.952,5.516 0,2.008 -0.317,3.834 -0.952,5.48 -0.634,1.646 -1.501,3.006 -2.601,4.082 -1.1,1.077 -2.393,1.908 -3.878,2.494 C 3.296,25.647 1.702,25.94 0,25.94 c -1.718,0 -3.32,-0.293 -4.805,-0.878 -1.486,-0.586 -2.782,-1.417 -3.89,-2.494 -1.108,-1.076 -1.979,-2.436 -2.614,-4.082 -0.634,-1.646 -0.951,-3.472 -0.951,-5.48 0,-2.023 0.317,-3.861 0.951,-5.516 0.635,-1.653 1.506,-3.022 2.614,-4.106 C -7.587,2.3 -6.291,1.465 -4.805,0.879 -3.32,0.292 -1.718,0 0,0 m 0,-4.505 c -3.228,0 -6.122,0.694 -8.683,2.084 -2.562,1.389 -4.593,3.424 -6.094,6.106 -1.502,2.681 -2.252,5.789 -2.252,9.321 0,2.65 0.433,5.078 1.3,7.287 0.868,2.207 2.064,4.05 3.589,5.527 1.526,1.478 3.328,2.621 5.408,3.433 2.079,0.81 4.323,1.216 6.732,1.216 2.393,0 4.628,-0.406 6.708,-1.216 2.08,-0.812 3.878,-1.955 5.396,-3.433 1.517,-1.477 2.713,-3.32 3.588,-5.527 0.875,-2.209 1.313,-4.637 1.313,-7.287 0,-2.665 -0.438,-5.103 -1.313,-7.31 C 14.817,3.488 13.621,1.646 12.104,0.168 10.586,-1.31 8.788,-2.457 6.708,-3.276 4.628,-4.095 2.393,-4.505 0,-4.505"
             style="fill:#231916;fill-opacity:1;fill-rule:nonzero;stroke:none"
             id="path78" />
        </g>
        <g
           id="g80"
           transform="translate(399.5354,92.4685)">
          <path
             d="m 0,0 c 1.702,0 3.296,0.292 4.781,0.879 1.485,0.586 2.778,1.421 3.878,2.505 1.1,1.084 1.967,2.453 2.601,4.106 0.635,1.655 0.952,3.493 0.952,5.516 0,2.008 -0.317,3.834 -0.952,5.48 -0.634,1.646 -1.501,3.006 -2.601,4.082 -1.1,1.077 -2.393,1.908 -3.878,2.494 C 3.296,25.647 1.702,25.94 0,25.94 c -1.718,0 -3.32,-0.293 -4.805,-0.878 -1.486,-0.586 -2.782,-1.417 -3.89,-2.494 -1.108,-1.076 -1.979,-2.436 -2.614,-4.082 -0.634,-1.646 -0.951,-3.472 -0.951,-5.48 0,-2.023 0.317,-3.861 0.951,-5.516 0.635,-1.653 1.506,-3.022 2.614,-4.106 C -7.587,2.3 -6.291,1.465 -4.805,0.879 -3.32,0.292 -1.718,0 0,0 Z m 0,-4.505 c -3.228,0 -6.122,0.694 -8.683,2.084 -2.562,1.389 -4.593,3.424 -6.094,6.106 -1.502,2.681 -2.252,5.789 -2.252,9.321 0,2.65 0.433,5.078 1.3,7.287 0.868,2.207 2.064,4.05 3.589,5.527 1.526,1.478 3.328,2.621 5.408,3.433 2.079,0.81 4.323,1.216 6.732,1.216 2.393,0 4.628,-0.406 6.708,-1.216 2.08,-0.812 3.878,-1.955 5.396,-3.433 1.517,-1.477 2.713,-3.32 3.588,-5.527 0.875,-2.209 1.313,-4.637 1.313,-7.287 0,-2.665 -0.438,-5.103 -1.313,-7.31 C 14.817,3.488 13.621,1.646 12.104,0.168 10.586,-1.31 8.788,-2.457 6.708,-3.276 4.628,-4.095 2.393,-4.505 0,-4.505 Z"
             style="fill:none;stroke:#231916;stroke-width:0.75;stroke-linecap:butt;stroke-linejoin:miter;stroke-miterlimit:10;stroke-dasharray:none;stroke-opacity:1"
             id="path82" />
        </g>
        <g
           id="g84"
           transform="translate(561.716,122.4802)">
          <path
             d="M 0,0 H 4.793 V -34.059 H 0 v 14.934 h -16.74 v -14.934 h -4.841 V 0 h 4.841 V -14.861 H 0 Z"
             style="fill:#231916;fill-opacity:1;fill-rule:nonzero;stroke:none"
             id="path86" />
        </g>
        <g
           id="g88"
           transform="translate(603.4045,118.1687)">
          <path
             d="m 0,0 h -13.633 v -10.599 h 12.019 v -4.287 H -13.633 V -25.411 H 0 v -4.336 H -18.522 V 4.312 H 0 Z"
             style="fill:#231916;fill-opacity:1;fill-rule:nonzero;stroke:none"
             id="path90" />
        </g>
        <g
           id="g92"
           transform="translate(624.9797,100.5613)">
          <path
             d="M 0,0 H 12.236 L 6.118,17.174 Z m 16.572,-12.14 -2.843,7.949 H -1.493 l -2.842,-7.949 h -4.986 l 12.55,34.059 h 5.78 L 21.558,-12.14 Z"
             style="fill:#231916;fill-opacity:1;fill-rule:nonzero;stroke:none"
             id="path94" />
        </g>
        <g
           id="g96"
           transform="translate(665.8254,92.7576)">
          <path
             d="M 0,0 H 11.634 V -4.336 H -4.793 V 29.723 H 0 Z"
             style="fill:#231916;fill-opacity:1;fill-rule:nonzero;stroke:none"
             id="path98" />
        </g>
        <g
           id="g100"
           transform="translate(710.091,122.4802)">
          <path
             d="m 0,0 v -4.312 h -8.623 v -29.747 h -4.745 v 29.747 h -8.647 V 0 Z"
             style="fill:#231916;fill-opacity:1;fill-rule:nonzero;stroke:none"
             id="path102" />
        </g>
        <g
           id="g104"
           transform="translate(746.1428,122.4802)">
          <path
             d="M 0,0 H 4.793 V -34.059 H 0 v 14.934 h -16.74 v -14.934 h -4.841 V 0 h 4.841 V -14.861 H 0 Z"
             style="fill:#231916;fill-opacity:1;fill-rule:nonzero;stroke:none"
             id="path106" />
        </g>
      </g>
    </g>
  </g>
</svg>
